<svg width="800" height="800" viewBox="0 0 800 800" fill="none" xmlns="http://www.w3.org/2000/svg">
<circle cx="400" cy="400" r="400" fill="url(#paint0_linear_259_5)"/>
<path d="M139.18 309.182L193.157 462.236H195.287L249.265 309.182H272.347L205.586 491H182.858L116.097 309.182H139.18ZM333.693 491L283.977 309.182H306.349L344.346 457.264H346.122L384.829 309.182H409.687L448.395 457.264H450.17L488.167 309.182H510.54L460.824 491H438.096L397.969 346.114H396.548L356.42 491H333.693ZM675.734 366H653.717C652.415 359.667 650.136 354.104 646.881 349.31C643.685 344.516 639.779 340.491 635.162 337.236C630.605 333.921 625.545 331.436 619.981 329.778C614.418 328.121 608.618 327.293 602.581 327.293C591.572 327.293 581.599 330.074 572.662 335.638C563.784 341.201 556.712 349.398 551.444 360.229C546.236 371.06 543.632 384.348 543.632 400.091C543.632 415.834 546.236 429.121 551.444 439.952C556.712 450.783 563.784 458.981 572.662 464.544C581.599 470.107 591.572 472.889 602.581 472.889C608.618 472.889 614.418 472.061 619.981 470.403C625.545 468.746 630.605 466.29 635.162 463.035C639.779 459.72 643.685 455.666 646.881 450.872C650.136 446.019 652.415 440.455 653.717 434.182H675.734C674.077 443.474 671.058 451.79 666.679 459.129C662.299 466.468 656.854 472.712 650.343 477.861C643.833 482.951 636.524 486.827 628.415 489.491C620.366 492.154 611.754 493.486 602.581 493.486C587.074 493.486 573.284 489.698 561.21 482.122C549.136 474.546 539.637 463.775 532.712 449.807C525.787 435.839 522.325 419.267 522.325 400.091C522.325 380.915 525.787 364.343 532.712 350.375C539.637 336.407 549.136 325.635 561.21 318.06C573.284 310.484 587.074 306.696 602.581 306.696C611.754 306.696 620.366 308.028 628.415 310.691C636.524 313.354 643.833 317.261 650.343 322.41C656.854 327.5 662.299 333.714 666.679 341.053C671.058 348.333 674.077 356.649 675.734 366Z" fill="#42385D"/>
<defs>
<linearGradient id="paint0_linear_259_5" x1="77.5" y1="175" x2="738" y2="664.5" gradientUnits="userSpaceOnUse">
<stop stop-color="#FFCFDA"/>
<stop offset="1" stop-color="#B094AE"/>
</linearGradient>
</defs>
</svg>
